<?xml version="1.0" encoding="UTF-8"?>
<svg width="75px" height="105px" viewBox="0 0 75 105" version="1.1" xmlns="http://www.w3.org/2000/svg" xmlns:xlink="http://www.w3.org/1999/xlink">
    <!-- Generator: Sketch 43.2 (39069) - http://www.bohemiancoding.com/sketch -->
    <title>placeholder_rect_m</title>
    <desc>Created with Sketch.</desc>
    <defs>
        <rect id="path-1" x="0" y="0" width="75" height="105"></rect>
    </defs>
    <g id="icons" stroke="none" stroke-width="1" fill="none" fill-rule="evenodd">
        <g id="icons_web" transform="translate(-160.000000, -1525.000000)">
            <g id="iphone360_10661" transform="translate(160.000000, 1525.000000)">
                <g id="Path">
                    <mask id="mask-2" fill="white">
                        <use xlink:href="#path-1"></use>
                    </mask>
                    <use id="Mask" fill="#F2F2F2" xlink:href="#path-1"></use>
                    <path d="M51.6258959,84.3294375 L51.6258959,74.9127708 C53.7446459,73.8628125 59.8042709,66.6496458 60.4398959,61.0137708 C62.1066459,60.8866458 64.7244792,59.3564375 65.4966459,53.3156458 C65.9109792,50.0716042 64.2630625,48.2494792 63.2648959,47.6750625 C63.2648959,47.6750625 65.7508959,42.9526042 65.7508959,37.2508125 C65.7508959,25.8189792 61.2638542,16.0633125 51.6258959,16.0633125 C51.6258959,16.0633125 48.2782709,9.0008125 37.5008959,9.0008125 C17.5281459,9.0008125 9.25089587,21.8121875 9.25089587,37.2508125 C9.25089587,42.4488125 11.7368959,47.6750625 11.7368959,47.6750625 C10.7387292,48.2494792 9.09081254,50.0763125 9.50514587,53.3156458 C10.2773125,59.3564375 12.8951459,60.8866458 14.5618959,61.0137708 C15.1975209,66.6496458 21.2571459,73.8628125 23.3758959,74.9127708 L23.3758959,84.3294375 C18.6675625,98.4544375 -18.9991041,89.0377708 -18.9991041,121.996104 L94.0008959,121.996104 C94.0008959,89.0377708 56.3342292,98.4544375 51.6258959,84.3294375 Z" id="Shape" fill="#E6E9EA" fill-rule="nonzero" mask="url(#mask-2)"></path>
                </g>
            </g>
            <g id="Slices" transform="translate(-281.000000, 84.000000)"></g>
        </g>
    </g>
</svg>